<svg id="svg" version="1.1" xmlns="http://www.w3.org/2000/svg" xmlns:xlink="http://www.w3.org/1999/xlink" width="400" height="400" viewBox="0, 0, 400,400"><g id="svgg"><path id="path0" d="M199.800 9.816 C 192.663 10.469,188.939 10.983,181.000 12.407 C 177.480 13.039,169.357 14.473,162.948 15.594 C 149.707 17.910,146.013 18.815,138.400 21.608 C 131.110 24.283,127.485 25.061,119.000 25.772 C 109.065 26.604,104.544 28.286,94.817 34.768 C 87.196 39.846,83.451 41.598,75.145 43.972 C 53.254 50.229,44.187 58.468,43.825 72.433 C 43.620 80.324,43.349 80.858,33.387 93.000 C 22.826 105.873,19.396 112.580,14.260 130.400 C 10.393 143.821,8.554 156.746,7.602 177.200 C 6.835 193.685,5.767 197.940,1.899 199.931 L 0.000 200.908 0.000 214.206 L 0.000 227.503 1.202 228.001 C 4.928 229.544,8.286 237.140,14.452 257.976 C 17.310 267.635,17.501 268.141,21.687 277.200 C 25.340 285.106,26.013 286.271,29.189 290.200 C 30.434 291.740,32.871 294.890,34.604 297.200 C 44.095 309.848,50.814 317.672,56.048 322.170 C 61.750 327.071,80.337 340.960,86.231 344.725 C 90.656 347.551,93.590 350.755,98.162 357.752 C 102.534 364.442,104.376 366.429,110.400 370.956 C 118.795 377.265,121.529 377.820,138.158 376.592 C 142.188 376.294,146.652 377.440,153.400 380.506 C 161.692 384.272,180.913 390.296,190.400 392.102 C 196.581 393.279,219.453 393.392,226.504 392.281 C 243.939 389.533,269.611 380.424,280.271 373.203 C 289.243 367.126,295.826 365.108,305.410 365.497 C 315.788 365.918,323.736 361.812,329.462 353.071 C 337.216 341.235,337.822 340.558,344.882 335.859 C 369.346 319.576,383.802 298.497,394.245 263.880 C 395.508 259.693,396.510 258.077,398.511 257.000 L 399.998 256.200 399.999 214.800 L 400.000 173.400 398.055 171.726 C 395.776 169.762,394.335 165.948,393.628 160.000 C 393.406 158.130,392.935 154.186,392.580 151.236 C 392.226 148.285,391.139 142.641,390.163 138.694 C 389.187 134.747,387.937 129.070,387.385 126.078 C 385.566 116.231,382.352 104.573,379.470 97.368 C 378.508 94.965,377.049 91.241,376.227 89.091 C 375.394 86.916,373.657 83.546,372.307 81.491 C 370.973 79.461,368.890 76.180,367.678 74.200 C 366.465 72.220,363.450 67.900,360.977 64.600 C 355.545 57.352,354.056 54.686,352.379 49.200 C 350.389 42.692,348.970 40.511,344.631 37.295 C 337.551 32.047,334.392 31.398,317.605 31.749 C 301.512 32.086,299.780 31.862,292.677 28.526 C 290.048 27.291,284.365 25.073,280.049 23.597 C 275.732 22.120,270.130 20.173,267.600 19.270 C 259.934 16.534,247.256 13.322,235.600 11.164 C 225.655 9.322,211.157 8.776,199.800 9.816 M101.077 46.201 C 107.478 48.101,109.299 56.383,104.349 61.080 C 101.621 63.667,100.842 63.814,90.527 63.678 C 77.571 63.506,75.863 63.858,66.131 68.706 C 56.526 73.491,52.000 72.927,52.000 66.946 C 52.000 61.330,63.099 53.377,74.800 50.607 C 84.597 48.288,87.594 47.551,91.000 46.621 C 95.173 45.482,98.228 45.354,101.077 46.201 M292.343 47.232 C 313.970 49.950,328.405 62.888,319.013 71.135 C 317.735 72.257,317.153 72.508,314.739 72.977 C 312.475 73.416,309.279 72.219,301.200 67.909 C 294.284 64.218,288.870 62.909,278.400 62.395 C 267.401 61.856,264.443 60.013,264.880 53.971 C 265.405 46.704,273.106 44.815,292.343 47.232 M277.000 80.014 C 294.266 81.634,318.890 95.817,329.060 110.000 C 335.863 119.488,342.809 134.712,344.206 143.200 C 346.800 158.952,345.099 173.255,339.033 186.704 C 329.479 207.886,322.323 215.410,300.600 227.110 C 289.559 233.057,282.923 234.586,268.200 234.576 C 252.226 234.565,247.345 233.220,230.600 224.216 C 211.746 214.078,195.623 191.800,191.948 170.808 C 188.592 151.640,192.774 132.026,203.652 115.909 C 213.643 101.104,221.516 94.475,238.526 86.540 C 249.305 81.512,251.988 80.722,261.200 79.859 C 264.505 79.550,272.936 79.632,277.000 80.014 M113.119 80.837 C 119.209 81.430,122.389 82.583,136.200 89.206 C 149.582 95.624,159.970 105.858,166.847 119.400 C 168.412 122.480,170.832 127.070,172.226 129.600 C 178.716 141.377,180.275 160.712,175.992 176.323 C 174.903 180.292,166.069 197.425,161.824 203.800 C 154.997 214.053,146.120 220.864,128.200 229.598 C 114.580 236.237,87.674 236.420,74.200 229.966 C 51.916 219.292,40.013 207.536,29.765 186.080 C 23.993 173.993,22.821 167.985,23.316 153.000 C 23.702 141.314,24.323 139.071,30.815 125.922 C 40.902 105.489,50.951 95.656,71.046 86.552 C 85.569 79.972,93.356 78.915,113.119 80.837 M104.800 95.833 C 97.984 96.621,96.106 97.149,85.270 101.321 C 74.771 105.363,66.737 112.452,56.462 126.740 C 39.787 149.928,44.243 180.288,67.658 203.021 C 85.364 220.211,112.797 224.014,136.310 212.538 C 148.345 206.664,160.758 193.991,164.852 183.400 C 171.225 166.914,171.500 151.850,165.758 133.842 C 158.623 111.469,129.048 93.028,104.800 95.833 M254.499 96.012 C 250.377 96.533,247.376 97.377,241.840 99.573 C 239.178 100.629,236.280 101.719,235.400 101.995 C 223.874 105.615,212.036 117.849,205.997 132.380 C 204.859 135.119,203.155 138.899,202.211 140.780 C 196.356 152.440,197.015 163.714,204.689 183.186 C 216.742 213.771,256.827 228.174,287.400 212.907 C 302.450 205.391,314.283 190.872,320.409 172.404 C 325.822 156.083,320.628 134.467,307.279 117.763 C 294.757 102.093,274.019 93.547,254.499 96.012 M119.200 103.446 C 172.943 112.815,178.614 192.095,126.774 209.341 C 108.794 215.322,87.671 212.029,74.729 201.226 C 60.901 189.684,52.719 173.605,52.631 157.800 C 52.563 145.437,56.284 140.414,63.164 143.583 C 70.074 146.767,73.023 145.682,79.863 137.440 C 83.828 132.662,84.777 131.839,91.403 127.435 C 97.407 123.445,99.621 121.357,100.888 118.494 C 101.706 116.645,101.710 116.277,100.992 109.600 C 100.351 103.641,107.146 101.345,119.200 103.446 M272.600 103.619 C 293.589 107.651,308.647 123.052,315.601 147.600 C 320.009 163.163,311.174 186.571,295.773 200.130 C 280.158 213.879,254.586 216.271,233.800 205.928 C 217.654 197.894,205.089 175.349,206.106 156.242 C 206.623 146.537,209.599 143.167,216.239 144.768 C 222.157 146.195,225.352 145.017,230.641 139.461 C 232.349 137.667,234.923 134.975,236.362 133.478 C 237.801 131.981,240.873 129.471,243.189 127.899 C 252.515 121.571,254.784 118.106,253.429 112.260 C 251.396 103.496,257.540 100.727,272.600 103.619 M91.086 115.450 C 92.838 117.846,91.012 119.640,81.162 125.200 C 79.799 125.970,77.136 128.036,75.245 129.791 C 69.121 135.475,70.944 131.294,78.768 121.707 C 84.382 114.829,88.939 112.514,91.086 115.450 M242.711 115.423 C 244.783 116.874,243.585 118.827,238.482 122.322 C 234.480 125.063,233.813 125.668,229.540 130.434 C 224.829 135.687,221.604 136.956,221.277 133.685 C 221.016 131.082,224.383 126.471,228.808 123.370 C 230.558 122.144,233.170 119.972,234.612 118.544 C 238.234 114.958,240.694 114.010,242.711 115.423 M147.000 259.557 C 148.760 260.185,152.000 261.334,154.200 262.111 C 170.895 268.011,202.054 267.278,218.823 260.591 C 228.364 256.786,233.569 258.343,233.112 264.864 C 232.809 269.198,229.998 271.828,222.800 274.510 C 191.065 286.334,131.582 278.604,135.992 263.229 C 137.296 258.682,141.040 257.434,147.000 259.557 " stroke="none" fill="#d29762" fill-rule="evenodd"></path><path id="path1" d="M91.000 46.621 C 87.594 47.551,84.597 48.288,74.800 50.607 C 63.099 53.377,52.000 61.330,52.000 66.946 C 52.000 72.927,56.526 73.491,66.131 68.706 C 75.863 63.858,77.571 63.506,90.527 63.678 C 101.987 63.829,104.178 63.075,106.440 58.200 C 110.365 49.741,102.148 43.578,91.000 46.621 M274.000 46.434 C 266.642 47.539,262.872 52.652,265.548 57.898 C 267.247 61.229,269.307 61.949,278.400 62.395 C 288.870 62.909,294.284 64.218,301.200 67.909 C 309.279 72.219,312.475 73.416,314.739 72.977 C 317.153 72.508,317.735 72.257,319.013 71.135 C 325.273 65.639,321.283 58.303,308.269 51.380 C 301.708 47.890,282.636 45.137,274.000 46.434 M108.693 102.858 C 103.149 103.426,100.571 105.683,100.992 109.600 C 101.710 116.277,101.706 116.645,100.888 118.494 C 99.621 121.357,97.407 123.445,91.403 127.435 C 84.777 131.839,83.828 132.662,79.863 137.440 C 73.023 145.682,70.074 146.767,63.164 143.583 C 48.816 136.974,48.889 169.683,63.265 188.800 C 75.802 205.471,88.586 212.118,108.200 212.162 C 146.305 212.248,171.058 178.184,160.325 140.430 C 153.827 117.574,130.532 100.622,108.693 102.858 M259.687 102.822 C 253.607 103.902,252.039 106.267,253.429 112.260 C 254.784 118.106,252.515 121.571,243.189 127.899 C 240.873 129.471,237.801 131.981,236.362 133.478 C 234.923 134.975,232.349 137.667,230.641 139.461 C 225.352 145.017,222.157 146.195,216.239 144.768 C 206.478 142.415,203.344 153.224,208.238 172.364 C 216.583 205.003,251.140 221.108,283.893 207.622 C 305.016 198.925,321.370 167.967,315.601 147.600 C 310.603 129.959,300.624 116.148,287.447 108.639 C 280.407 104.627,266.239 101.658,259.687 102.822 M139.331 259.175 C 134.155 261.525,134.791 268.117,140.547 271.775 C 158.106 282.932,211.217 282.924,228.684 271.762 C 234.100 268.301,234.801 261.517,229.992 259.101 C 227.447 257.822,224.922 258.158,218.823 260.591 C 202.054 267.278,170.895 268.011,154.200 262.111 C 152.000 261.334,148.760 260.185,147.000 259.557 C 143.250 258.221,141.613 258.139,139.331 259.175 " stroke="none" fill="#110f0d" fill-rule="evenodd"></path><path id="path2" d="M-0.000 100.390 L -0.000 200.780 0.998 200.401 C 5.626 198.641,6.796 194.534,7.602 177.200 C 8.554 156.746,10.393 143.821,14.260 130.400 C 19.396 112.580,22.826 105.873,33.387 93.000 C 43.349 80.858,43.620 80.324,43.825 72.433 C 44.187 58.468,53.254 50.229,75.145 43.972 C 83.451 41.598,87.196 39.846,94.817 34.768 C 104.544 28.286,109.065 26.604,119.000 25.772 C 127.486 25.061,131.112 24.283,138.400 21.607 C 145.811 18.887,149.730 17.913,161.800 15.791 C 167.520 14.786,175.710 13.343,180.000 12.586 C 198.671 9.291,210.704 8.542,224.800 9.798 C 237.013 10.886,255.692 15.020,267.600 19.270 C 270.130 20.173,275.732 22.120,280.049 23.597 C 284.365 25.073,290.048 27.291,292.677 28.526 C 299.780 31.862,301.512 32.086,317.605 31.749 C 334.392 31.398,337.551 32.047,344.631 37.295 C 348.970 40.511,350.389 42.692,352.379 49.200 C 354.056 54.686,355.545 57.352,360.977 64.600 C 363.450 67.900,366.465 72.220,367.678 74.200 C 368.890 76.180,370.973 79.461,372.307 81.491 C 373.657 83.546,375.394 86.916,376.227 89.091 C 377.049 91.241,378.508 94.965,379.470 97.368 C 382.352 104.573,385.566 116.231,387.385 126.078 C 387.937 129.070,389.185 134.736,390.157 138.670 C 391.764 145.170,392.223 147.983,393.642 160.000 C 394.429 166.670,395.996 170.386,398.900 172.466 L 400.000 173.254 400.000 86.627 L 400.000 0.000 200.000 0.000 L 0.000 0.000 -0.000 100.390 M261.200 79.859 C 242.086 81.648,219.888 94.057,208.352 109.400 C 188.710 135.525,185.298 162.632,198.333 189.000 C 208.288 209.137,217.415 217.865,240.600 229.420 C 251.656 234.930,271.219 236.321,287.000 232.719 C 295.919 230.683,311.897 221.680,321.523 213.267 C 332.264 203.879,343.368 181.718,344.824 166.766 C 346.355 151.036,344.756 140.862,338.602 127.195 C 328.904 105.657,319.561 96.487,296.496 85.873 C 284.315 80.267,274.574 78.607,261.200 79.859 M91.800 80.407 C 84.069 80.863,82.722 81.262,71.046 86.552 C 50.951 95.656,40.902 105.489,30.815 125.922 C 24.323 139.071,23.702 141.314,23.316 153.000 C 22.821 167.985,23.993 173.993,29.765 186.080 C 40.013 207.536,51.916 219.292,74.200 229.966 C 87.674 236.420,114.580 236.237,128.200 229.598 C 146.120 220.864,154.997 214.053,161.824 203.800 C 166.069 197.425,174.903 180.292,175.992 176.323 C 180.275 160.712,178.716 141.377,172.226 129.600 C 170.832 127.070,168.412 122.480,166.847 119.400 C 159.970 105.858,149.582 95.624,136.200 89.206 C 118.050 80.502,111.656 79.235,91.800 80.407 M120.788 96.798 C 141.185 100.954,160.288 116.691,165.758 133.842 C 171.500 151.850,171.225 166.914,164.852 183.400 C 160.758 193.991,148.345 206.664,136.310 212.538 C 112.797 224.014,85.364 220.211,67.658 203.021 C 44.243 180.288,39.787 149.928,56.462 126.740 C 66.737 112.452,74.771 105.363,85.270 101.321 C 96.106 97.149,97.984 96.621,104.800 95.833 C 107.871 95.478,117.020 96.030,120.788 96.798 M271.800 96.608 C 287.939 99.425,303.464 110.062,311.903 124.084 C 320.506 138.378,323.712 151.357,322.024 165.053 C 320.212 179.760,307.219 200.511,294.598 208.859 C 263.071 229.711,217.946 216.825,204.689 183.186 C 197.015 163.714,196.356 152.440,202.211 140.780 C 203.155 138.899,204.859 135.119,205.997 132.380 C 212.036 117.849,223.874 105.615,235.400 101.995 C 236.280 101.719,239.178 100.629,241.840 99.573 C 251.841 95.606,260.915 94.708,271.800 96.608 M86.200 114.862 C 84.127 115.622,82.546 117.077,78.768 121.707 C 70.944 131.294,69.121 135.475,75.245 129.791 C 77.136 128.036,79.799 125.970,81.162 125.200 C 89.673 120.395,91.600 118.848,91.600 116.817 C 91.600 114.948,88.767 113.922,86.200 114.862 M238.517 115.389 C 237.812 115.696,236.055 117.115,234.612 118.544 C 233.170 119.972,230.558 122.144,228.808 123.370 C 224.383 126.471,221.016 131.082,221.277 133.685 C 221.604 136.956,224.829 135.687,229.540 130.434 C 233.813 125.668,234.480 125.063,238.482 122.322 C 240.430 120.988,242.378 119.446,242.812 118.894 C 244.999 116.114,242.167 113.802,238.517 115.389 M0.000 313.800 L 0.000 400.000 200.000 400.000 L 400.000 400.000 400.000 328.200 C 400.000 288.710,399.865 256.401,399.700 256.401 C 397.698 256.411,395.638 259.252,394.220 263.960 C 383.827 298.454,369.322 319.592,344.882 335.859 C 337.822 340.558,337.216 341.235,329.462 353.071 C 323.736 361.812,315.788 365.918,305.410 365.497 C 295.826 365.108,289.243 367.126,280.271 373.203 C 269.611 380.424,243.939 389.533,226.504 392.281 C 219.453 393.392,196.581 393.279,190.400 392.102 C 180.913 390.296,161.692 384.272,153.400 380.506 C 146.652 377.440,142.188 376.294,138.158 376.592 C 121.529 377.820,118.795 377.265,110.400 370.956 C 104.376 366.429,102.534 364.442,98.162 357.752 C 93.590 350.755,90.656 347.551,86.231 344.725 C 80.337 340.960,61.750 327.071,56.048 322.170 C 50.814 317.672,44.095 309.848,34.604 297.200 C 32.871 294.890,30.434 291.740,29.189 290.200 C 26.013 286.271,25.340 285.106,21.687 277.200 C 17.501 268.141,17.310 267.635,14.452 257.976 C 7.937 235.964,4.019 227.600,0.220 227.600 C 0.099 227.600,0.000 266.390,0.000 313.800 " stroke="none" fill="#f9f7f5" fill-rule="evenodd"></path></g></svg>